<?xml version="1.0" encoding="UTF-8" standalone="no"?>
<!-- Created with Inkscape (http://www.inkscape.org/) -->

<svg
   xmlns:dc="http://purl.org/dc/elements/1.1/"
   xmlns:cc="http://creativecommons.org/ns#"
   xmlns:rdf="http://www.w3.org/1999/02/22-rdf-syntax-ns#"
   xmlns:svg="http://www.w3.org/2000/svg"
   xmlns="http://www.w3.org/2000/svg"
   xmlns:sodipodi="http://sodipodi.sourceforge.net/DTD/sodipodi-0.dtd"
   xmlns:inkscape="http://www.inkscape.org/namespaces/inkscape"
   width="300"
   height="50"
   viewBox="0 0 300 50"
   id="svg2"
   version="1.1"
   inkscape:version="0.91 r13725"
   sodipodi:docname="upp.svg">
  <defs
     id="defs4" />
  <sodipodi:namedview
     id="base"
     pagecolor="#ffffff"
     bordercolor="#666666"
     borderopacity="1.0"
     inkscape:pageopacity="0.0"
     inkscape:pageshadow="2"
     inkscape:zoom="1.979899"
     inkscape:cx="143.55547"
     inkscape:cy="60.099593"
     inkscape:document-units="px"
     inkscape:current-layer="layer1"
     showgrid="false"
     units="px"
     inkscape:window-width="1366"
     inkscape:window-height="741"
     inkscape:window-x="-9"
     inkscape:window-y="-9"
     inkscape:window-maximized="1" />
  <metadata
     id="metadata7">
    <rdf:RDF>
      <cc:Work
         rdf:about="">
        <dc:format>image/svg+xml</dc:format>
        <dc:type
           rdf:resource="http://purl.org/dc/dcmitype/StillImage" />
        <dc:title></dc:title>
      </cc:Work>
    </rdf:RDF>
  </metadata>
  <g
     inkscape:label="Layer 1"
     inkscape:groupmode="layer"
     id="layer1"
     transform="translate(0,-1002.3622)">
    <path
       style="opacity:1;fill:#fdfeff;fill-opacity:0.61176473;fill-rule:nonzero;stroke:none;stroke-width:4;stroke-linecap:round;stroke-linejoin:round;stroke-miterlimit:4;stroke-dasharray:none;stroke-dashoffset:0;stroke-opacity:0.41326533"
       d="M 201.24609 8.6054688 L 178.65625 26.21875 L 178.15234 24.339844 L 146.81641 15.945312 L 129.97656 32.785156 L 111.45898 22.322266 L 86.994141 36.751953 L 69.640625 18.730469 L 42.970703 25.339844 L 20.609375 12.427734 L -2.3554688 25.6875 L -2.3554688 52.205078 L 20.609375 65.462891 L 37.158203 55.910156 L 53.908203 73.302734 L 81.470703 66.472656 L 82.136719 64.160156 L 82.228516 74.048828 L 112.09375 90.923828 L 141.64062 73.5 L 141.63281 72.726562 L 163.60938 78.613281 L 180.53711 61.685547 L 210.33789 73.759766 L 216.73242 68.773438 L 245.1875 86.492188 L 268.91406 73.828125 L 277.14258 84.285156 L 289.92188 82.445312 L 290.22461 82.679688 L 291.2793 82.248047 L 311.4082 79.349609 L 313.95312 72.986328 L 322.64453 69.435547 L 327.38477 34.734375 L 299.70508 13.279297 L 272.57422 24.363281 L 268.5918 24.9375 L 268.53711 25.074219 L 247.66992 12.080078 L 231.33789 20.796875 L 201.24609 8.6054688 z "
       transform="translate(0,1002.3622)"
       id="path4136" />
  </g>
</svg>
